<?xml version="1.0" standalone="no"?>
<!DOCTYPE svg PUBLIC "-//W3C//DTD SVG 20010904//EN"
 "http://www.w3.org/TR/2001/REC-SVG-20010904/DTD/svg10.dtd">
<svg version="1.0" xmlns="http://www.w3.org/2000/svg"
 width="1088.000000pt" height="1088.000000pt" viewBox="0 0 1088.000000 1088.000000"
 preserveAspectRatio="xMidYMid meet">
<metadata>
Created by potrace 1.11, written by Peter Selinger 2001-2013
</metadata>
<g transform="translate(0.000000,1088.000000) scale(0.100000,-0.100000)"
fill="#000000" stroke="none">
<path d="M1218 9914 c-4 -4 -15 -8 -25 -9 -64 -6 -156 -83 -199 -165 -26 -49
-29 -65 -28 -140 1 -65 6 -96 23 -133 36 -77 130 -159 200 -172 9 -2 16 -4 16
-5 0 -1 9 -3 20 -4 50 -6 65 -17 55 -36 -6 -12 -7 -21 0 -25 6 -3 6 -15 0 -30
-6 -15 -6 -27 1 -30 5 -4 7 -11 4 -16 -8 -13 -10 -198 -2 -205 3 -4 2 -14 -3
-23 -5 -10 -5 -23 0 -31 4 -7 4 -24 0 -36 -6 -14 -5 -26 0 -29 6 -3 6 -15 0
-30 -5 -14 -5 -27 0 -30 5 -3 5 -18 1 -33 -5 -15 -5 -37 0 -49 12 -33 -9 -42
-94 -40 -42 1 -77 -1 -77 -5 0 -4 -11 -3 -25 2 -15 6 -27 6 -30 0 -3 -6 -15
-6 -30 0 -13 5 -26 6 -29 2 -5 -9 -81 -6 -95 3 -5 3 -12 1 -16 -4 -3 -7 -15
-7 -30 -1 -15 6 -27 6 -30 0 -3 -6 -15 -6 -30 0 -15 6 -27 6 -30 0 -4 -6 -13
-7 -24 -1 -10 6 -23 6 -31 1 -8 -5 -21 -5 -31 0 -9 5 -19 7 -22 4 -10 -10 -77
-10 -77 0 0 4 -6 4 -13 -2 -6 -5 -30 -12 -52 -16 -154 -22 -345 -157 -426
-301 -19 -33 -33 -62 -32 -65 1 -3 -5 -16 -13 -30 -46 -81 -44 56 -41 -3450 1
-1812 5 -3302 8 -3310 8 -23 31 -104 31 -110 0 -3 7 -13 15 -22 9 -10 13 -18
10 -18 -15 0 80 -137 117 -169 10 -9 34 -31 55 -48 20 -18 48 -38 64 -45 15
-7 27 -16 27 -20 0 -5 4 -8 9 -8 5 0 22 -5 38 -12 15 -6 31 -11 36 -10 4 1 7
-2 7 -8 0 -5 11 -10 25 -10 14 0 25 -3 25 -7 0 -5 17 -10 38 -13 59 -7 9184
-6 9217 2 17 3 32 7 35 8 3 1 10 3 15 4 20 4 51 17 123 53 66 32 171 121 222
188 24 32 90 169 96 200 1 6 3 12 4 15 6 17 11 55 15 129 3 46 8 87 10 92 3 4
1 10 -4 13 -4 3 -5 24 -1 46 4 22 4 40 0 40 -4 0 -4 18 0 40 4 22 4 40 0 40
-4 0 -4 18 0 40 4 22 4 40 0 40 -4 0 -4 18 0 40 4 22 4 40 0 40 -4 0 -4 18 0
40 4 22 4 40 0 40 -4 0 -4 18 0 40 4 22 4 40 0 40 -4 0 -4 18 0 40 4 22 4 40
0 40 -4 0 -4 18 0 40 4 22 4 40 0 40 -4 0 -4 18 0 40 4 22 4 40 0 40 -4 0 -4
18 0 40 4 22 4 40 0 40 -4 0 -4 18 0 40 4 22 4 40 0 40 -4 0 -4 18 0 40 4 22
4 40 0 40 -4 0 -4 18 0 40 4 22 4 40 0 40 -4 0 -4 18 0 40 4 22 4 40 0 40 -4
0 -4 18 0 40 4 22 4 40 0 40 -4 0 -4 18 0 40 4 22 4 40 0 40 -4 0 -4 18 0 40
4 22 4 40 0 40 -4 0 -4 18 0 40 4 22 4 40 0 40 -4 0 -4 18 0 40 4 22 4 40 0
40 -4 0 -4 18 0 40 4 22 4 40 0 40 -4 0 -4 18 0 40 4 22 4 40 0 40 -4 0 -4 18
0 40 4 22 4 40 0 40 -4 0 -4 18 0 40 4 22 4 40 0 40 -4 0 -4 18 0 40 4 22 4
40 0 40 -4 0 -4 18 0 40 4 22 4 40 0 40 -4 0 -4 18 0 40 4 22 4 40 0 40 -4 0
-4 18 0 40 4 22 4 40 0 40 -4 0 -4 18 0 40 4 22 4 40 0 40 -4 0 -4 18 0 40 4
22 4 40 0 40 -4 0 -4 18 0 40 4 22 4 40 0 40 -4 0 -4 18 0 40 4 22 4 40 0 40
-4 0 -4 18 0 40 4 22 4 40 0 40 -4 0 -4 18 0 40 4 22 4 40 0 40 -4 0 -4 18 0
40 4 22 4 40 0 40 -4 0 -4 18 0 40 4 22 4 40 0 40 -4 0 -4 18 0 40 4 22 4 40
0 40 -4 0 -4 18 0 40 4 22 4 40 0 40 -4 0 -4 18 0 40 4 22 4 40 0 40 -4 0 -4
18 0 40 4 22 4 40 0 40 -4 0 -4 18 0 40 4 22 4 40 0 40 -4 0 -4 18 0 40 4 22
4 40 0 40 -4 0 -4 18 0 40 4 22 4 40 0 40 -4 0 -4 18 0 40 4 22 4 40 0 40 -4
0 -4 18 0 40 4 22 4 40 0 40 -4 0 -4 18 0 40 4 22 4 40 0 40 -4 0 -4 18 0 40
4 22 4 40 0 40 -4 0 -4 18 0 40 4 22 4 40 0 40 -4 0 -4 18 0 40 4 22 4 40 0
40 -4 0 -4 18 0 40 4 22 4 40 0 40 -4 0 -4 18 0 40 4 22 4 40 0 40 -4 0 -4 18
0 40 4 22 4 40 0 40 -4 0 -4 18 0 40 4 22 4 40 0 40 -4 0 -4 18 0 40 4 22 4
40 0 40 -4 0 -4 18 0 40 4 22 4 40 0 40 -4 0 -4 18 0 40 4 22 4 40 0 40 -4 0
-4 18 0 40 4 22 4 40 0 40 -4 0 -4 18 0 40 4 22 4 40 0 40 -4 0 -4 18 0 40 4
22 4 40 0 40 -4 0 -4 18 0 40 4 22 4 40 0 40 -4 0 -4 18 0 40 4 22 4 40 0 40
-4 0 -4 18 0 40 4 22 4 40 0 40 -4 0 -4 18 0 40 4 22 4 40 0 40 -4 0 -4 18 0
40 4 22 4 40 0 40 -4 0 -4 18 0 40 4 22 4 40 0 40 -4 0 -4 18 0 40 4 22 4 40
0 40 -4 0 -4 18 0 40 4 22 4 40 0 40 -4 0 -4 18 0 40 4 22 4 40 0 40 -4 0 -4
18 0 40 4 22 4 40 0 40 -4 0 -4 18 0 40 4 22 4 40 0 40 -4 0 -4 18 0 40 4 22
4 40 0 40 -4 0 -4 18 0 40 4 22 4 40 0 40 -4 0 -4 18 0 40 4 22 4 40 0 40 -4
0 -4 18 0 40 4 22 4 40 0 40 -4 0 -4 18 0 40 4 22 4 40 0 40 -4 0 -4 18 0 40
4 22 4 40 0 40 -4 0 -4 18 0 40 4 22 4 40 0 40 -4 0 -4 18 0 40 4 22 4 40 0
40 -4 0 -4 18 0 40 4 23 3 40 -2 40 -5 0 -7 4 -4 8 13 21 4 165 -14 231 -5 20
-9 38 -9 41 1 3 -18 43 -42 89 -58 116 -163 221 -278 279 -45 23 -87 40 -91
37 -5 -3 -11 -1 -15 4 -5 9 -91 27 -107 23 -5 -1 -8 3 -8 9 0 7 -5 8 -12 3 -7
-5 -32 -8 -55 -7 -40 3 -49 3 -88 3 -8 0 -22 0 -30 0 -8 0 -21 0 -27 0 -7 -1
-54 0 -104 1 -50 1 -96 -1 -102 -5 -6 -3 -13 -2 -17 3 -3 7 -15 7 -30 1 -15
-6 -27 -6 -30 0 -3 5 -15 6 -28 1 -12 -5 -34 -5 -49 0 -16 4 -28 4 -28 -1 0
-5 -13 -5 -30 0 -18 5 -32 5 -36 -1 -3 -5 -10 -6 -16 -3 -15 10 -198 11 -198
2 0 -4 -11 -3 -25 2 -15 6 -27 6 -30 0 -3 -6 -15 -6 -30 0 -13 5 -26 6 -29 2
-5 -9 -81 -6 -95 3 -5 3 -12 1 -16 -4 -3 -7 -15 -7 -30 -1 -15 6 -27 6 -30 0
-3 -6 -15 -6 -30 0 -15 6 -27 6 -30 0 -4 -6 -13 -7 -24 -1 -10 6 -23 6 -31 1
-8 -5 -21 -5 -30 0 -9 5 -22 5 -30 0 -7 -4 -24 -4 -36 0 -14 6 -26 5 -29 0 -3
-6 -15 -6 -30 0 -15 6 -27 6 -30 0 -4 -6 -13 -7 -24 -1 -10 6 -23 6 -31 1 -8
-5 -21 -5 -30 0 -9 5 -22 5 -30 0 -7 -4 -20 -6 -27 -3 -22 9 -233 9 -233 1 0
-4 -11 -3 -25 2 -15 6 -27 6 -30 0 -3 -6 -15 -6 -29 0 -13 5 -27 6 -30 3 -8
-8 -84 -8 -92 0 -3 3 -16 2 -29 -3 -13 -5 -26 -6 -29 -3 -8 8 -126 9 -126 1 0
-4 -14 -3 -30 2 -17 5 -30 5 -30 0 0 -4 -16 -4 -35 0 -19 4 -35 4 -35 0 0 -5
-14 -5 -30 0 -18 5 -30 5 -30 0 0 -6 -9 -6 -22 -1 -13 5 -33 5 -45 0 -13 -5
-25 -4 -28 1 -3 5 -15 6 -29 0 -12 -4 -28 -5 -35 -1 -6 4 -32 5 -57 1 -24 -4
-47 -3 -50 1 -2 5 -15 4 -28 -1 -13 -5 -27 -6 -30 -3 -8 8 -126 9 -126 1 0 -4
-14 -3 -30 2 -16 5 -30 5 -30 0 0 -4 -16 -4 -35 0 -19 4 -35 4 -35 0 0 -5 -14
-5 -30 0 -18 5 -30 5 -30 0 0 -6 -9 -6 -22 -1 -13 5 -33 5 -45 0 -13 -5 -25
-4 -28 1 -3 5 -15 6 -29 0 -12 -4 -28 -5 -35 -1 -6 4 -32 5 -57 1 -24 -4 -47
-3 -50 1 -2 5 -15 4 -28 -1 -13 -5 -27 -6 -30 -3 -8 8 -126 9 -126 1 0 -4 -13
-3 -30 2 -17 5 -30 5 -30 0 0 -4 -16 -4 -35 0 -19 4 -35 4 -35 0 0 -5 -14 -5
-30 0 -18 5 -30 5 -30 0 0 -6 -9 -6 -22 -1 -13 5 -33 5 -45 0 -13 -5 -25 -4
-28 1 -3 5 -15 6 -29 0 -12 -4 -28 -5 -35 -1 -6 4 -32 5 -57 1 -24 -4 -47 -3
-50 1 -2 5 -15 4 -28 -1 -13 -5 -27 -6 -30 -3 -8 8 -126 9 -126 1 0 -4 -14 -3
-30 2 -16 5 -30 5 -30 0 0 -4 -16 -4 -35 0 -19 4 -35 4 -35 0 0 -5 -13 -5 -30
0 -18 5 -30 5 -30 0 0 -6 -9 -6 -22 -1 -13 5 -33 5 -45 0 -13 -5 -25 -4 -28 1
-3 6 -15 6 -29 0 -13 -5 -27 -6 -30 -3 -8 9 -226 9 -226 1 0 -4 -11 -3 -25 2
-15 6 -27 6 -30 0 -3 -6 -15 -6 -30 0 -13 5 -26 6 -29 2 -5 -9 -81 -6 -95 3
-5 3 -12 1 -16 -4 -3 -7 -15 -7 -30 -1 -15 6 -27 6 -30 0 -3 -6 -15 -6 -30 0
-15 6 -27 6 -30 0 -4 -6 -13 -7 -24 -1 -10 6 -23 6 -31 1 -8 -5 -21 -5 -30 0
-9 5 -22 5 -30 0 -7 -4 -24 -4 -36 0 -14 6 -26 5 -29 0 -3 -6 -15 -6 -30 0
-15 6 -27 6 -30 0 -4 -6 -13 -7 -24 -1 -10 6 -23 6 -31 1 -8 -5 -21 -5 -30 0
-9 5 -22 5 -30 0 -7 -4 -20 -6 -27 -3 -22 9 -233 9 -233 1 0 -4 -11 -3 -25 2
-15 6 -27 6 -30 0 -3 -6 -15 -6 -30 0 -13 5 -26 6 -29 2 -2 -4 -22 -6 -43 -4
-21 1 -44 3 -50 2 -7 0 -20 0 -28 0 -8 0 -22 0 -30 0 -8 0 -21 0 -27 0 -7 -1
-54 0 -104 1 -50 1 -96 -1 -102 -5 -6 -3 -13 -2 -17 3 -3 7 -15 7 -30 1 -15
-6 -27 -6 -30 0 -3 5 -15 6 -28 1 -12 -5 -34 -5 -49 0 -16 4 -28 4 -28 -1 0
-5 -13 -5 -30 0 -18 5 -32 5 -36 -1 -3 -5 -10 -6 -16 -3 -15 10 -198 11 -198
2 0 -4 -11 -3 -25 2 -15 6 -27 6 -30 0 -3 -6 -15 -6 -30 0 -13 5 -26 6 -29 2
-5 -9 -81 -6 -95 3 -5 3 -12 1 -16 -4 -3 -7 -15 -7 -30 -1 -15 6 -27 6 -30 0
-3 -6 -15 -6 -30 0 -15 6 -27 6 -30 0 -4 -6 -13 -7 -24 -1 -10 6 -23 6 -31 1
-8 -5 -21 -5 -30 0 -9 5 -22 5 -30 0 -7 -4 -24 -4 -36 0 -14 6 -26 5 -29 0 -3
-6 -15 -6 -30 0 -15 6 -27 6 -30 0 -4 -6 -13 -7 -24 -1 -10 6 -23 6 -31 1 -8
-5 -21 -5 -30 0 -9 5 -22 5 -30 0 -8 -5 -18 -6 -22 -3 -13 7 -107 8 -114 0 -3
-3 -17 -2 -30 3 -14 6 -26 6 -29 0 -4 -6 -13 -7 -24 -1 -9 5 -23 6 -31 1 -7
-4 -24 -4 -36 0 -14 6 -26 5 -29 0 -4 -6 -13 -7 -23 -1 -11 6 -24 6 -34 0 -12
-7 -21 -4 -32 13 -9 13 -12 26 -7 31 5 5 5 22 1 38 -5 17 -5 29 0 29 6 0 6 10
0 25 -6 16 -6 25 0 25 6 0 6 9 0 25 -6 15 -6 25 0 25 5 0 5 12 0 30 -5 18 -5
30 0 30 6 0 6 10 0 24 -5 13 -6 27 -3 30 8 7 10 66 3 66 -3 0 -5 14 -5 30 0
17 3 30 7 30 4 0 3 11 -2 25 -6 16 -6 25 0 25 6 0 6 9 0 25 -6 16 -6 25 0 25
6 0 6 9 0 25 -6 16 -6 25 1 25 6 0 6 7 -1 20 -9 17 -8 20 12 21 51 1 121 24
163 52 38 25 95 88 95 104 0 7 4 13 8 13 28 0 51 186 29 240 -29 73 -41 93
-80 132 -23 24 -65 54 -92 68 l-50 25 -390 3 c-215 2 -394 0 -397 -4z"/>
</g>
</svg>
